<svg version="1.1" id="Layer_1" xmlns="http://www.w3.org/2000/svg" xmlns:xlink="http://www.w3.org/1999/xlink" x="0px" y="0px"
	 width="100%" viewBox="0 0 500 500" enable-background="new 0 0 500 500" xml:space="preserve">
<path fill="#000000" opacity="0.000000" stroke="none" 
	d="
M336.000000,501.000000 
	C224.000031,501.000000 112.500053,501.000000 1.000060,501.000000 
	C1.000040,334.333405 1.000040,167.666794 1.000020,1.000149 
	C167.666565,1.000100 334.333130,1.000100 500.999756,1.000050 
	C500.999847,167.666519 500.999847,334.333038 500.999939,500.999786 
	C446.166656,501.000000 391.333344,501.000000 336.000000,501.000000 
M388.008636,196.756653 
	C386.495178,190.641891 385.858704,184.133804 383.321960,178.477997 
	C369.713074,148.136215 345.094604,132.408478 312.753113,130.972565 
	C277.160400,129.392334 241.449905,130.433105 205.790649,130.391312 
	C170.963120,130.350494 136.135178,130.326157 101.308548,130.509140 
	C98.831619,130.522156 95.170998,131.667572 94.234947,133.436768 
	C93.338577,135.130951 94.669312,138.742386 96.074753,140.787003 
	C102.017235,149.432022 108.652077,157.606491 114.485939,166.319778 
	C129.463394,188.689697 150.688843,198.037109 177.072449,197.899170 
	C219.231018,197.678726 261.391632,197.813202 303.551178,197.896515 
	C306.653870,197.902649 309.892090,198.304337 312.801544,199.299210 
	C314.358215,199.831512 316.338379,202.038345 316.317719,203.463196 
	C316.296387,204.930908 314.339172,207.055283 312.757843,207.659714 
	C310.203064,208.636276 307.263000,208.942780 304.484833,208.946823 
	C256.326202,209.016937 208.167435,208.994904 160.008698,209.003464 
	C156.879044,209.004013 152.772675,208.308929 151.999695,212.161377 
	C151.488739,214.707977 152.849915,218.188309 154.453140,220.502106 
	C160.617325,229.398300 167.243866,237.973038 173.648819,246.703720 
	C186.895905,264.761017 204.884369,275.013153 227.023056,275.832214 
	C255.979080,276.903503 284.996735,276.227112 313.983002,276.641022 
	C319.011627,276.712799 324.231537,277.858704 328.985962,279.561523 
	C338.085602,282.820709 339.566772,292.833862 332.187988,299.060852 
	C327.473938,303.039032 321.798920,304.014435 315.818726,304.009094 
	C286.490234,303.982910 257.161285,303.930695 227.834122,304.129395 
	C225.550552,304.144867 222.360458,305.457153 221.291031,307.205933 
	C220.421844,308.627258 221.485641,312.048401 222.753708,313.825012 
	C230.397964,324.535004 238.104340,335.218964 246.251556,345.547485 
	C259.312500,362.105255 276.643036,370.498260 297.724701,370.984467 
	C305.053101,371.153473 312.389313,370.949768 319.720215,371.048065 
	C340.082031,371.321075 358.552368,365.345337 374.856598,353.390839 
	C394.319458,339.120392 406.467804,320.217224 408.232788,295.657440 
	C409.925385,272.105499 401.572327,252.236511 384.972076,235.731567 
	C382.689636,233.462265 381.834717,231.678482 383.265381,228.469788 
	C387.624023,218.694229 388.892883,208.338791 388.008636,196.756653 
z"/>
<path fill="#C60031" opacity="1.000000" stroke="none" 
	d="
M388.029266,197.229843 
	C388.892883,208.338791 387.624023,218.694229 383.265381,228.469788 
	C381.834717,231.678482 382.689636,233.462265 384.972076,235.731567 
	C401.572327,252.236511 409.925385,272.105499 408.232788,295.657440 
	C406.467804,320.217224 394.319458,339.120392 374.856598,353.390839 
	C358.552368,365.345337 340.082031,371.321075 319.720215,371.048065 
	C312.389313,370.949768 305.053101,371.153473 297.724701,370.984467 
	C276.643036,370.498260 259.312500,362.105255 246.251556,345.547485 
	C238.104340,335.218964 230.397964,324.535004 222.753708,313.825012 
	C221.485641,312.048401 220.421844,308.627258 221.291031,307.205933 
	C222.360458,305.457153 225.550552,304.144867 227.834122,304.129395 
	C257.161285,303.930695 286.490234,303.982910 315.818726,304.009094 
	C321.798920,304.014435 327.473938,303.039032 332.187988,299.060852 
	C339.566772,292.833862 338.085602,282.820709 328.985962,279.561523 
	C324.231537,277.858704 319.011627,276.712799 313.983002,276.641022 
	C284.996735,276.227112 255.979080,276.903503 227.023056,275.832214 
	C204.884369,275.013153 186.895905,264.761017 173.648819,246.703720 
	C167.243866,237.973038 160.617325,229.398300 154.453140,220.502106 
	C152.849915,218.188309 151.488739,214.707977 151.999695,212.161377 
	C152.772675,208.308929 156.879044,209.004013 160.008698,209.003464 
	C208.167435,208.994904 256.326202,209.016937 304.484833,208.946823 
	C307.263000,208.942780 310.203064,208.636276 312.757843,207.659714 
	C314.339172,207.055283 316.296387,204.930908 316.317719,203.463196 
	C316.338379,202.038345 314.358215,199.831512 312.801544,199.299210 
	C309.892090,198.304337 306.653870,197.902649 303.551178,197.896515 
	C261.391632,197.813202 219.231018,197.678726 177.072449,197.899170 
	C150.688843,198.037109 129.463394,188.689697 114.485939,166.319778 
	C108.652077,157.606491 102.017235,149.432022 96.074753,140.787003 
	C94.669312,138.742386 93.338577,135.130951 94.234947,133.436768 
	C95.170998,131.667572 98.831619,130.522156 101.308548,130.509140 
	C136.135178,130.326157 170.963120,130.350494 205.790649,130.391312 
	C241.449905,130.433105 277.160400,129.392334 312.753113,130.972565 
	C345.094604,132.408478 369.713074,148.136215 383.321960,178.477997 
	C385.858704,184.133804 386.495178,190.641891 388.029266,197.229843 
z"/>
</svg>